<?xml version="1.0" encoding="utf-8"?>
<!-- Generator: Adobe Illustrator 25.0.1, SVG Export Plug-In . SVG Version: 6.00 Build 0)  -->
<svg version="1.1" id="圖層_1" xmlns="http://www.w3.org/2000/svg" xmlns:xlink="http://www.w3.org/1999/xlink" x="0px" y="0px"
	 viewBox="0 0 779.4 180.7" style="enable-background:new 0 0 779.4 180.7;" xml:space="preserve">
<style type="text/css">
	.st0{fill:#FFFFFF;}
	.st1{fill:#C2B49A;}
</style>
<g id="Layer_1">
	<path class="st0" d="M226.2,1.2v29.7h34.3V1.2h9.3v71h-9.3V38.9h-34.3v33.3H217v-71H226.2z"/>
	<path class="st0" d="M346.4,35.9c0,24.5-14.9,37.4-33,37.4s-31.9-14.5-31.9-36s14-37.3,33-37.3S346.4,14.9,346.4,35.9z M291.3,37.1
		c0,15.1,8.2,28.7,22.6,28.7s22.8-13.3,22.8-29.5c0-14.1-7.4-28.8-22.7-28.8S291.3,21.5,291.3,37.1z"/>
	<path class="st0" d="M357,61c5,3,10.6,4.5,16.4,4.6c9.4,0,14.9-4.9,14.9-12.1s-3.8-10.4-13.4-14.1c-11.6-4.1-18.7-10.1-18.7-20.1
		S365.3,0,379.1,0c7.3,0,12.6,1.7,15.7,3.5l-2.5,7.5c-4.1-2.3-8.8-3.4-13.5-3.4c-9.7,0-13.4,5.8-13.4,10.6c0,6.7,4.4,9.9,14.2,13.7
		c12,4.7,18.1,10.4,18.1,20.9s-8.1,20.4-24.9,20.4c-6.8,0-14.3-2-18.1-4.5L357,61z"/>
	<path class="st0" d="M410.2,2c5.8-0.9,11.7-1.4,17.6-1.4c9.1,0,15.7,2.1,19.9,5.9s6.2,8.6,6.2,14.9s-1.9,11.5-5.5,15.2
		s-12.7,7.7-21.7,7.7c-2.4,0.1-4.9-0.1-7.3-0.6v28.5h-9.2L410.2,2z M419.4,36.2c2.5,0.6,5,0.9,7.5,0.8c11.1,0,17.9-5.4,17.9-15.2
		S438.1,7.9,428,7.9c-2.9-0.1-5.8,0.2-8.6,0.7L419.4,36.2z"/>
	<path class="st0" d="M475.4,1.2v71h-9.2v-71H475.4z"/>
	<path class="st0" d="M504.9,9h-21.6V1.2h52.6V9h-21.7v63.2h-9.3L504.9,9z"/>
	<path class="st0" d="M547.3,49.8L540,72.2h-9.5l24.1-71h11.1l24.2,71h-9.8l-7.6-22.4L547.3,49.8z M570.6,42.7l-6.9-20.5
		c-1.6-4.6-2.7-8.8-3.7-12.9h-0.2c-1.1,4.2-2.2,8.5-3.6,12.8l-7,20.6L570.6,42.7z"/>
	<path class="st0" d="M600.3,1.2h9.2v63.3h30.3v7.7h-39.5V1.2z"/>
	<path class="st0" d="M659.2,1.2v71H650v-71H659.2z"/>
	<path class="st0" d="M688.7,9h-21.6V1.2h52.6V9H698v63.2h-9.3V9z"/>
	<path class="st0" d="M746.3,72.2V42L723.9,1.2h10.4l10,19.6c2.8,5.3,4.9,9.6,7.1,14.6h0.2c2-4.6,4.4-9.3,7.1-14.6L769,1.2h10.4
		l-23.8,40.7v30.3H746.3z"/>
	<path class="st0" d="M275.3,176.3c-7.7,2.5-15.6,3.9-23.7,4c-13,0-22.4-3.3-28.9-9.6s-10.1-15.4-10-25.8
		c0.1-23.6,17.3-37.1,40.6-37.1c9.1,0,16.2,1.8,19.7,3.5l-3.4,12.8c-5.3-2.1-10.9-3.2-16.6-3c-13.3,0-23.4,7.6-23.4,23
		s9.1,23.2,22.3,23.2c3.7,0,6.6-0.4,7.9-1v-14.9h-11v-12.5h26.5L275.3,176.3z"/>
	<path class="st0" d="M287.8,109.5c7.1-1,14.2-1.5,21.4-1.5c10.5,0,17.9,1.6,23,5.6s6.5,8.3,6.5,14.9c0,9-6.4,15.2-12.6,17.4v0.4
		c5,2,7.7,6.7,9.5,13.2c2.2,8,4.5,17.3,5.8,20.1H325c-1.2-2-2.9-7.8-5-16.6s-4.9-11.3-11.4-11.4h-4.9v28h-15.9V109.5z M303.7,140
		h6.3c8,0,12.8-4,12.8-10.2s-4.4-9.8-11.8-9.9c-2.4-0.1-4.9,0.1-7.3,0.6V140z"/>
	<path class="st0" d="M414.8,143.3c0,23.3-14.1,37.4-34.8,37.4s-33.4-15.9-33.4-36.1s13.6-37.2,34.5-37.2S414.8,123.7,414.8,143.3z
		 M363.5,144.3c0,13.9,6.6,23.7,17.3,23.7s17.1-10.4,17.1-24.2s-6.1-23.7-17.2-23.7S363.5,130.5,363.5,144.3z"/>
	<path class="st0" d="M441.4,108.6v40.8c0,12.2,4.6,18.5,12.8,18.5s13.1-5.9,13.1-18.5v-40.8h16v39.8c0,21.9-11.1,32.3-29.6,32.3
		s-28.4-9.9-28.4-32.5v-39.6H441.4z"/>
	<path class="st0" d="M497.2,109.5c7.2-1.1,14.4-1.6,21.7-1.5c9.9,0,17,1.9,21.7,5.7c4.9,4,7.7,10.1,7.6,16.4c0,7-2.3,12.9-6.5,16.9
		s-13.6,7.5-23.1,7.5c-1.8,0-3.7-0.1-5.5-0.3v25.4h-15.9V109.5z M513.1,141.7c1.8,0.4,3.6,0.6,5.4,0.5c8.5,0,13.8-4.4,13.8-11.6
		s-4.5-10.5-12.6-10.5c-2.2,0-4.4,0.2-6.6,0.7L513.1,141.7z"/>
	<polygon class="st1" points="121.9,166.4 121.9,97.2 30.9,97.2 30.9,14.3 16.6,14.3 16.6,166.4 0,166.4 0,180.7 47.8,180.7 
		47.8,166.4 30.9,166.4 30.9,111.5 107.6,111.5 107.6,166.4 73.1,166.4 73.1,180.7 169.6,180.7 169.6,166.4 	"/>
	<polygon class="st0" points="169.6,0 121.8,0 121.8,14.3 138.5,14.3 138.5,69.2 61.9,69.2 61.9,14.3 96.5,14.3 96.5,0 0,0 0,14.3 
		47.6,14.3 47.6,83.5 138.5,83.5 138.5,166.4 152.8,166.4 152.8,14.3 169.6,14.3 	"/>
</g>
</svg>
